<svg xmlns="http://www.w3.org/2000/svg" viewBox="0 0 128 128">
  <!-- Gradient definitions -->
  <defs>
    <linearGradient id="bgGradient" x1="0%" y1="0%" x2="100%" y2="100%">
      <stop offset="0%" style="stop-color:#FF69B4"/>
      <stop offset="100%" style="stop-color:#9400D3"/>
    </linearGradient>
    <linearGradient id="noteGradient" x1="0%" y1="0%" x2="100%" y2="100%">
      <stop offset="0%" style="stop-color:#00FFFF"/>
      <stop offset="100%" style="stop-color:#FF1493"/>
    </linearGradient>
  </defs>

  <!-- Background with glow effect -->
  <circle cx="64" cy="64" r="60" fill="url(#bgGradient)"/>
  
  <!-- Decorative elements -->
  <circle cx="64" cy="64" r="55" fill="none" stroke="#FFFFFF" stroke-width="2" opacity="0.3"/>
  <circle cx="64" cy="64" r="50" fill="none" stroke="#FFFFFF" stroke-width="2" opacity="0.2"/>
  
  <!-- Stylized Slack hash -->
  <g fill="#FFFFFF" opacity="0.9">
    <rect x="35" y="45" width="25" height="6" rx="3" transform="rotate(-5, 47.5, 48)"/>
    <rect x="68" y="45" width="25" height="6" rx="3" transform="rotate(5, 80.5, 48)"/>
    <rect x="35" y="75" width="25" height="6" rx="3" transform="rotate(5, 47.5, 78)"/>
    <rect x="68" y="75" width="25" height="6" rx="3" transform="rotate(-5, 80.5, 78)"/>
  </g>

  <!-- Stylized music note with gradient -->
  <path d="M60 30v35.5c-1.5-0.8-3.2-1.3-5-1.3-5.5 0-10 4.5-10 10s4.5 10 10 10 10-4.5 10-10V40h10" 
        fill="none" 
        stroke="url(#noteGradient)" 
        stroke-width="6" 
        stroke-linecap="round"
        stroke-linejoin="round"/>
  
  <!-- Sparkle elements -->
  <g fill="#FFFFFF">
    <circle cx="90" cy="30" r="2"/>
    <circle cx="95" cy="35" r="1"/>
    <circle cx="30" cy="90" r="2"/>
    <circle cx="35" cy="95" r="1"/>
    <circle cx="85" cy="85" r="2"/>
  </g>
</svg>